{
  "accessors": [
    {
      "bufferView": 2,
      "componentType": 5126,
      "count": 16520,
      "max": [
        0.9836575388908386,
        0.9876513481140137,
        0.9837104082107544
      ],
      "min": [
        -0.9836575388908386,
        -0.9876512885093689,
        -0.9837104082107544
      ],
      "type": "VEC3"
    },
    {
      "bufferView": 2,
      "byteOffset": 198240,
      "componentType": 5126,
      "count": 16520,
      "max": [
        1.0,
        1.0,
        1.0
      ],
      "min": [
        -1.0,
        -1.0,
        -1.0
      ],
      "type": "VEC3"
    },
    {
      "bufferView": 1,
      "componentType": 5126,
      "count": 16520,
      "max": [
        0.9916412830352783,
        0.9888470768928528
      ],
      "min": [
        0.017032712697982788,
        0.013603543862700462
      ],
      "type": "VEC2"
    },
    {
      "bufferView": 1,
      "byteOffset": 132160,
      "componentType": 5126,
      "count": 16520,
      "max": [
        0.9916412830352783,
        0.9888470768928528
      ],
      "min": [
        0.017032712697982788,
        0.013603543862700462
      ],
      "type": "VEC2"
    },
    {
      "bufferView": 0,
      "componentType": 5125,
      "count": 94848,
      "type": "SCALAR"
    },
    {
      "bufferView": 2,
      "byteOffset": 396480,
      "componentType": 5126,
      "count": 4,
      "max": [
        1.0,
        1.0,
        0.0
      ],
      "min": [
        -1.0,
        -1.0,
        0.0
      ],
      "type": "VEC3"
    },
    {
      "bufferView": 2,
      "byteOffset": 396528,
      "componentType": 5126,
      "count": 4,
      "max": [
        0.0,
        0.0,
        1.0
      ],
      "min": [
        0.0,
        0.0,
        1.0
      ],
      "type": "VEC3"
    },
    {
      "bufferView": 1,
      "byteOffset": 264320,
      "componentType": 5126,
      "count": 4,
      "max": [
        0.9999000430107117,
        0.9999000430107117
      ],
      "min": [
        9.998001041822135e-05,
        9.998001041822135e-05
      ],
      "type": "VEC2"
    },
    {
      "bufferView": 0,
      "byteOffset": 379392,
      "componentType": 5125,
      "count": 6,
      "type": "SCALAR"
    },
    {
      "bufferView": 3,
      "componentType": 5126,
      "count": 63,
      "max": [
        2.066666603088379
      ],
      "min": [
        0.0
      ],
      "type": "SCALAR"
    },
    {
      "bufferView": 4,
      "componentType": 5126,
      "count": 63,
      "max": [
        0.0,
        8.0,
        0.0
      ],
      "min": [
        0.0,
        1.096099615097046,
        0.0
      ],
      "type": "VEC3"
    },
    {
      "bufferView": 3,
      "byteOffset": 252,
      "componentType": 5126,
      "count": 2,
      "max": [
        2.066666603088379
      ],
      "min": [
        0.0
      ],
      "type": "SCALAR"
    },
    {
      "bufferView": 4,
      "byteOffset": 756,
      "componentType": 5126,
      "count": 2,
      "max": [
        1.0000001192092896,
        1.0,
        1.0
      ],
      "min": [
        1.0000001192092896,
        1.0,
        1.0
      ],
      "type": "VEC3"
    },
    {
      "bufferView": 3,
      "byteOffset": 260,
      "componentType": 5126,
      "count": 63,
      "max": [
        2.066666603088379
      ],
      "min": [
        0.0
      ],
      "type": "SCALAR"
    },
    {
      "bufferView": 5,
      "componentType": 5126,
      "count": 63,
      "max": [
        0.911557674407959,
        0.4111371636390686,
        0.9114795327186584,
        0.279104083776474
      ],
      "min": [
        -0.6187660694122314,
        -0.28691214323043823,
        -0.6360761523246765,
        -0.4111722707748413
      ],
      "type": "VEC4"
    },
    {
      "bufferView": 3,
      "byteOffset": 512,
      "componentType": 5126,
      "count": 2,
      "max": [
        2.066666603088379
      ],
      "min": [
        0.0
      ],
      "type": "SCALAR"
    },
    {
      "bufferView": 4,
      "byteOffset": 780,
      "componentType": 5126,
      "count": 2,
      "max": [
        0.0,
        0.0,
        0.0
      ],
      "min": [
        0.0,
        0.0,
        0.0
      ],
      "type": "VEC3"
    },
    {
      "bufferView": 3,
      "byteOffset": 520,
      "componentType": 5126,
      "count": 63,
      "max": [
        2.066666603088379
      ],
      "min": [
        0.0
      ],
      "type": "SCALAR"
    },
    {
      "bufferView": 4,
      "byteOffset": 804,
      "componentType": 5126,
      "count": 63,
      "max": [
        2.423327684402466,
        2.423327684402466,
        2.423327684402466
      ],
      "min": [
        0.5,
        0.5,
        0.5
      ],
      "type": "VEC3"
    },
    {
      "bufferView": 3,
      "byteOffset": 772,
      "componentType": 5126,
      "count": 2,
      "max": [
        2.066666603088379
      ],
      "min": [
        0.0
      ],
      "type": "SCALAR"
    },
    {
      "bufferView": 5,
      "byteOffset": 1008,
      "componentType": 5126,
      "count": 2,
      "max": [
        -0.7071068286895752,
        0.0,
        0.0,
        0.7071067094802856
      ],
      "min": [
        -0.7071068286895752,
        0.0,
        0.0,
        0.7071067094802856
      ],
      "type": "VEC4"
    },
    {
      "bufferView": 3,
      "byteOffset": 780,
      "componentType": 5126,
      "count": 1,
      "max": [
        0.0
      ],
      "min": [
        0.0
      ],
      "type": "SCALAR"
    },
    {
      "bufferView": 4,
      "byteOffset": 1560,
      "componentType": 5126,
      "count": 1,
      "max": [
        0.0,
        0.0,
        0.0
      ],
      "min": [
        0.0,
        0.0,
        0.0
      ],
      "type": "VEC3"
    },
    {
      "bufferView": 3,
      "byteOffset": 784,
      "componentType": 5126,
      "count": 1,
      "max": [
        0.0
      ],
      "min": [
        0.0
      ],
      "type": "SCALAR"
    },
    {
      "bufferView": 4,
      "byteOffset": 1572,
      "componentType": 5126,
      "count": 1,
      "max": [
        1.0,
        1.0,
        1.0
      ],
      "min": [
        1.0,
        1.0,
        1.0
      ],
      "type": "VEC3"
    },
    {
      "bufferView": 3,
      "byteOffset": 788,
      "componentType": 5126,
      "count": 1,
      "max": [
        0.0
      ],
      "min": [
        0.0
      ],
      "type": "SCALAR"
    },
    {
      "bufferView": 5,
      "byteOffset": 1040,
      "componentType": 5126,
      "count": 1,
      "max": [
        0.0,
        0.0,
        0.0,
        1.0
      ],
      "min": [
        0.0,
        0.0,
        0.0,
        1.0
      ],
      "type": "VEC4"
    }
  ],
  "animations": [
    {
      "channels": [
        {
          "sampler": 0,
          "target": {
            "node": 4,
            "path": "translation"
          }
        },
        {
          "sampler": 1,
          "target": {
            "node": 4,
            "path": "scale"
          }
        },
        {
          "sampler": 2,
          "target": {
            "node": 4,
            "path": "rotation"
          }
        },
        {
          "sampler": 3,
          "target": {
            "node": 6,
            "path": "translation"
          }
        },
        {
          "sampler": 4,
          "target": {
            "node": 6,
            "path": "scale"
          }
        },
        {
          "sampler": 5,
          "target": {
            "node": 6,
            "path": "rotation"
          }
        },
        {
          "sampler": 6,
          "target": {
            "node": 3,
            "path": "translation"
          }
        },
        {
          "sampler": 7,
          "target": {
            "node": 3,
            "path": "scale"
          }
        },
        {
          "sampler": 8,
          "target": {
            "node": 3,
            "path": "rotation"
          }
        }
      ],
      "name": "Scene",
      "samplers": [
        {
          "input": 9,
          "interpolation": "LINEAR",
          "output": 10
        },
        {
          "input": 11,
          "interpolation": "LINEAR",
          "output": 12
        },
        {
          "input": 13,
          "interpolation": "LINEAR",
          "output": 14
        },
        {
          "input": 15,
          "interpolation": "LINEAR",
          "output": 16
        },
        {
          "input": 17,
          "interpolation": "LINEAR",
          "output": 18
        },
        {
          "input": 19,
          "interpolation": "LINEAR",
          "output": 20
        },
        {
          "input": 21,
          "interpolation": "LINEAR",
          "output": 22
        },
        {
          "input": 23,
          "interpolation": "LINEAR",
          "output": 24
        },
        {
          "input": 25,
          "interpolation": "LINEAR",
          "output": 26
        }
      ]
    }
  ],
  "asset": {
    "extras": {
      "author": "Maurice Svay (https://sketchfab.com/mauricesvay)",
      "license": "CC-BY-ND-4.0 (http://creativecommons.org/licenses/by-nd/4.0/)",
      "source": "https://sketchfab.com/3d-models/bouncing-basketball-b8731a2fda6849c9a164d1966dc16ff8",
      "title": "Bouncing Basketball"
    },
    "generator": "Sketchfab-12.66.0",
    "version": "2.0"
  },
  "bufferViews": [
    {
      "buffer": 0,
      "byteLength": 379416,
      "name": "floatBufferViews",
      "target": 34963
    },
    {
      "buffer": 0,
      "byteLength": 264352,
      "byteOffset": 379416,
      "byteStride": 8,
      "name": "floatBufferViews",
      "target": 34962
    },
    {
      "buffer": 0,
      "byteLength": 396576,
      "byteOffset": 643768,
      "byteStride": 12,
      "name": "floatBufferViews",
      "target": 34962
    },
    {
      "buffer": 0,
      "byteLength": 792,
      "byteOffset": 1040344,
      "name": "floatBufferViews"
    },
    {
      "buffer": 0,
      "byteLength": 1584,
      "byteOffset": 1041136,
      "byteStride": 12,
      "name": "floatBufferViews"
    },
    {
      "buffer": 0,
      "byteLength": 1056,
      "byteOffset": 1042720,
      "byteStride": 16,
      "name": "floatBufferViews"
    }
  ],
  "buffers": [
    {
      "byteLength": 1043776,
      "uri": "scene.bin"
    }
  ],
  "images": [
    {
      "uri": "textures/basketball_baseColor.jpeg"
    },
    {
      "uri": "textures/floor_baseColor.png"
    }
  ],
  "materials": [
    {
      "doubleSided": true,
      "name": "basketball",
      "pbrMetallicRoughness": {
        "baseColorTexture": {
          "index": 0
        },
        "metallicFactor": 0.0,
        "roughnessFactor": 0.4
      }
    },
    {
      "alphaMode": "BLEND",
      "name": "floor",
      "pbrMetallicRoughness": {
        "baseColorFactor": [
          0.0,
          0.0,
          0.0,
          1.0
        ],
        "baseColorTexture": {
          "index": 1
        },
        "metallicFactor": 0.0
      }
    }
  ],
  "meshes": [
    {
      "name": "PolySphere.001_basketball_0",
      "primitives": [
        {
          "attributes": {
            "NORMAL": 1,
            "POSITION": 0,
            "TEXCOORD_0": 2,
            "TEXCOORD_1": 3
          },
          "indices": 4,
          "material": 0,
          "mode": 4
        }
      ]
    },
    {
      "name": "Plane_floor_0",
      "primitives": [
        {
          "attributes": {
            "NORMAL": 6,
            "POSITION": 5,
            "TEXCOORD_0": 7
          },
          "indices": 8,
          "material": 1,
          "mode": 4
        }
      ]
    }
  ],
  "nodes": [
    {
      "children": [
        1
      ],
      "matrix": [
        0.14349623024463654,
        0.0,
        0.0,
        0.0,
        0.0,
        3.186256375290165e-17,
        -0.14349623024463654,
        0.0,
        0.0,
        0.14349623024463654,
        3.186256375290165e-17,
        0.0,
        0.0,
        0.0,
        0.0,
        1.0
      ],
      "name": "Sketchfab_model"
    },
    {
      "children": [
        2
      ],
      "matrix": [
        1.0,
        0.0,
        0.0,
        0.0,
        0.0,
        0.0,
        1.0,
        0.0,
        0.0,
        -1.0,
        0.0,
        0.0,
        0.0,
        0.0,
        0.0,
        1.0
      ],
      "name": "5d8334b8cc9e4276a192db3df0934e7a.fbx"
    },
    {
      "children": [
        3
      ],
      "name": "Object_2"
    },
    {
      "children": [
        4,
        6
      ],
      "name": "RootNode"
    },
    {
      "children": [
        5
      ],
      "name": "PolySphere.001",
      "rotation": [
        0.3213193118572235,
        0.3847808837890625,
        0.8530480861663818,
        -0.1449362337589264
      ],
      "scale": [
        1.0000001192092896,
        1.0,
        1.0
      ],
      "translation": [
        0.0,
        3.946150302886963,
        0.0
      ]
    },
    {
      "mesh": 0,
      "name": "PolySphere.001_basketball_0"
    },
    {
      "children": [
        7
      ],
      "name": "Plane",
      "rotation": [
        -0.7071068286895752,
        0.0,
        0.0,
        0.7071067094802856
      ],
      "scale": [
        1.0071051120758057,
        1.0071051120758057,
        1.0071051120758057
      ]
    },
    {
      "mesh": 1,
      "name": "Plane_floor_0"
    }
  ],
  "samplers": [
    {
      "magFilter": 9729,
      "minFilter": 9987,
      "wrapS": 10497,
      "wrapT": 10497
    }
  ],
  "scene": 0,
  "scenes": [
    {
      "name": "Sketchfab_Scene",
      "nodes": [
        0
      ]
    }
  ],
  "textures": [
    {
      "sampler": 0,
      "source": 0
    },
    {
      "sampler": 0,
      "source": 1
    }
  ]
}
